<mxfile host="65bd71144e">
    <diagram id="2Z_CETV6rpszF2AJH84o" name="Page-1">
        <mxGraphModel dx="2044" dy="1103" grid="1" gridSize="10" guides="1" tooltips="1" connect="1" arrows="1" fold="1" page="0" pageScale="1" pageWidth="850" pageHeight="1100" math="0" shadow="0">
            <root>
                <mxCell id="0"/>
                <mxCell id="1" parent="0"/>
                <mxCell id="32" style="edgeStyle=none;html=1;exitX=0.5;exitY=1;exitDx=0;exitDy=0;fontColor=#262626;fillColor=#1ba1e2;strokeColor=#006EAF;entryX=0.5;entryY=0;entryDx=0;entryDy=0;" parent="1" source="33" target="12" edge="1">
                    <mxGeometry relative="1" as="geometry">
                        <mxPoint x="510" y="390" as="targetPoint"/>
                    </mxGeometry>
                </mxCell>
                <mxCell id="79" style="edgeStyle=none;html=1;exitX=0.25;exitY=1;exitDx=0;exitDy=0;fillColor=#1ba1e2;strokeColor=#006EAF;entryX=0.372;entryY=-0.038;entryDx=0;entryDy=0;entryPerimeter=0;" parent="1" source="12" target="77" edge="1">
                    <mxGeometry relative="1" as="geometry">
                        <Array as="points">
                            <mxPoint x="200" y="800"/>
                        </Array>
                        <mxPoint x="201" y="1080" as="targetPoint"/>
                    </mxGeometry>
                </mxCell>
                <mxCell id="135" style="edgeStyle=none;html=1;exitX=0.5;exitY=1;exitDx=0;exitDy=0;entryX=0.5;entryY=0;entryDx=0;entryDy=0;fillColor=#dae8fc;strokeColor=#6c8ebf;" parent="1" source="12" target="38" edge="1">
                    <mxGeometry relative="1" as="geometry"/>
                </mxCell>
                <mxCell id="12" value="APP&#10;10.0.1.0/24" style="swimlane;startSize=40;swimlaneFillColor=none;rounded=0;glass=0;shadow=0;swimlaneLine=1;fillColor=#1ba1e2;strokeColor=#006EAF;fontColor=#ffffff;" parent="1" vertex="1">
                    <mxGeometry x="200" y="400" width="438" height="200" as="geometry">
                        <mxRectangle x="320" y="320" width="50" height="40" as="alternateBounds"/>
                    </mxGeometry>
                </mxCell>
                <mxCell id="15" value="POSTGRES&lt;br&gt;10.0.1.2" style="rounded=1;whiteSpace=wrap;html=1;fillColor=#1ba1e2;fontColor=#ffffff;strokeColor=#006EAF;" parent="12" vertex="1">
                    <mxGeometry x="40" y="80" width="120" height="60" as="geometry"/>
                </mxCell>
                <mxCell id="20" style="edgeStyle=none;html=1;exitX=0;exitY=0.5;exitDx=0;exitDy=0;entryX=1;entryY=0.5;entryDx=0;entryDy=0;fillColor=#1ba1e2;strokeColor=#006EAF;" parent="12" source="16" target="15" edge="1">
                    <mxGeometry relative="1" as="geometry"/>
                </mxCell>
                <mxCell id="16" value="DJANGO&lt;br&gt;10.0.1.1" style="rounded=1;whiteSpace=wrap;html=1;shadow=0;fillColor=#1ba1e2;fontColor=#ffffff;strokeColor=#006EAF;" parent="12" vertex="1">
                    <mxGeometry x="280" y="80" width="120" height="60" as="geometry"/>
                </mxCell>
                <mxCell id="22" value="5432/tcp" style="text;html=1;strokeColor=none;fillColor=none;align=center;verticalAlign=middle;whiteSpace=wrap;rounded=0;" parent="12" vertex="1">
                    <mxGeometry x="189" y="80" width="60" height="30" as="geometry"/>
                </mxCell>
                <mxCell id="28" value="10.0.0.1 =&amp;gt; 10.0.1.1 = 8000/tcp" style="text;html=1;align=left;verticalAlign=middle;resizable=0;points=[];autosize=1;strokeColor=none;fillColor=none;" parent="1" vertex="1">
                    <mxGeometry x="430" y="325" width="190" height="30" as="geometry"/>
                </mxCell>
                <mxCell id="80" style="edgeStyle=none;html=1;exitX=0;exitY=0.5;exitDx=0;exitDy=0;entryX=0.325;entryY=-0.004;entryDx=0;entryDy=0;fillColor=#1ba1e2;strokeColor=#006EAF;entryPerimeter=0;" parent="1" source="33" target="77" edge="1">
                    <mxGeometry relative="1" as="geometry">
                        <Array as="points">
                            <mxPoint x="120" y="360"/>
                        </Array>
                    </mxGeometry>
                </mxCell>
                <mxCell id="33" value="PROXY-WAF&lt;br&gt;10.0.4.0/24" style="swimlane;whiteSpace=wrap;html=1;fillColor=#1ba1e2;strokeColor=#006EAF;fontColor=#ffffff;startSize=40;" parent="1" vertex="1">
                    <mxGeometry x="319" y="80" width="200" height="200" as="geometry"/>
                </mxCell>
                <mxCell id="9" value="NGINX&lt;br&gt;10.0.4.1" style="rounded=1;whiteSpace=wrap;html=1;fillColor=#1ba1e2;fontColor=#ffffff;strokeColor=#006EAF;" parent="33" vertex="1">
                    <mxGeometry x="40" y="80" width="120" height="60" as="geometry"/>
                </mxCell>
                <mxCell id="37" style="edgeStyle=none;html=1;exitX=0.5;exitY=1;exitDx=0;exitDy=0;entryX=0.5;entryY=0;entryDx=0;entryDy=0;fillColor=#1ba1e2;strokeColor=#006EAF;" parent="1" source="34" target="33" edge="1">
                    <mxGeometry relative="1" as="geometry"/>
                </mxCell>
                <mxCell id="133" style="edgeStyle=none;html=1;entryX=0;entryY=0.25;entryDx=0;entryDy=0;fillColor=#dae8fc;strokeColor=#6c8ebf;exitX=0.278;exitY=1.014;exitDx=0;exitDy=0;exitPerimeter=0;" parent="1" source="34" target="38" edge="1">
                    <mxGeometry relative="1" as="geometry">
                        <Array as="points">
                            <mxPoint x="40" y="770"/>
                            <mxPoint x="180" y="770"/>
                        </Array>
                        <mxPoint x="40" as="sourcePoint"/>
                    </mxGeometry>
                </mxCell>
                <mxCell id="34" value="HOST PRIVATE NETWORK" style="swimlane;whiteSpace=wrap;html=1;startSize=40;fillColor=#f5f5f5;gradientColor=#b3b3b3;strokeColor=#666666;" parent="1" vertex="1">
                    <mxGeometry x="-440" y="-50" width="1720" height="40" as="geometry"/>
                </mxCell>
                <mxCell id="81" style="edgeStyle=none;html=1;exitX=0.5;exitY=1;exitDx=0;exitDy=0;entryX=0.5;entryY=0;entryDx=0;entryDy=0;fillColor=#1ba1e2;strokeColor=#006EAF;" parent="1" source="38" target="77" edge="1">
                    <mxGeometry relative="1" as="geometry"/>
                </mxCell>
                <mxCell id="38" value="SECRETS&lt;br&gt;10.0.0.0/24" style="swimlane;whiteSpace=wrap;html=1;startSize=40;fillColor=#1ba1e2;fontColor=#ffffff;strokeColor=#006EAF;" parent="1" vertex="1">
                    <mxGeometry x="320" y="720" width="200" height="200" as="geometry"/>
                </mxCell>
                <mxCell id="40" value="VAULT&lt;br&gt;10.0.0.1" style="rounded=1;whiteSpace=wrap;html=1;fillColor=#1ba1e2;strokeColor=#006EAF;fontColor=#ffffff;" parent="38" vertex="1">
                    <mxGeometry x="39" y="80" width="120" height="60" as="geometry"/>
                </mxCell>
                <mxCell id="87" style="edgeStyle=none;html=1;fillColor=#1ba1e2;strokeColor=#006EAF;entryX=1;entryY=0.5;entryDx=0;entryDy=0;exitX=0.5;exitY=1;exitDx=0;exitDy=0;" parent="1" target="38" edge="1" source="102">
                    <mxGeometry relative="1" as="geometry">
                        <mxPoint x="520" y="790.3333333333335" as="targetPoint"/>
                        <Array as="points">
                            <mxPoint x="840" y="820"/>
                        </Array>
                        <mxPoint x="1040" y="820" as="sourcePoint"/>
                    </mxGeometry>
                </mxCell>
                <mxCell id="88" style="edgeStyle=none;html=1;fillColor=#1ba1e2;strokeColor=#006EAF;entryX=1;entryY=0.5;entryDx=0;entryDy=0;" parent="1" target="12" edge="1">
                    <mxGeometry relative="1" as="geometry">
                        <mxPoint x="640" y="530.3333333333335" as="targetPoint"/>
                        <mxPoint x="840" y="500" as="sourcePoint"/>
                    </mxGeometry>
                </mxCell>
                <mxCell id="89" style="edgeStyle=none;html=1;entryX=0.5;entryY=0;entryDx=0;entryDy=0;fillColor=#1ba1e2;strokeColor=#006EAF;exitX=0.86;exitY=0.998;exitDx=0;exitDy=0;exitPerimeter=0;" parent="1" source="34" target="102" edge="1">
                    <mxGeometry relative="1" as="geometry">
                        <mxPoint x="1390" y="350" as="targetPoint"/>
                        <mxPoint x="1040" y="10" as="sourcePoint"/>
                    </mxGeometry>
                </mxCell>
                <mxCell id="55" style="edgeStyle=none;html=1;entryX=0.5;entryY=0;entryDx=0;entryDy=0;fillColor=#1ba1e2;strokeColor=#006EAF;exitX=0.14;exitY=1;exitDx=0;exitDy=0;exitPerimeter=0;" parent="1" source="34" target="44" edge="1">
                    <mxGeometry relative="1" as="geometry">
                        <mxPoint x="-140" y="-30" as="targetPoint"/>
                        <mxPoint x="-140" y="-10" as="sourcePoint"/>
                    </mxGeometry>
                </mxCell>
                <mxCell id="137" style="edgeStyle=none;html=1;entryX=0;entryY=0.75;entryDx=0;entryDy=0;fillColor=#dae8fc;strokeColor=#6c8ebf;" parent="1" target="38" edge="1">
                    <mxGeometry relative="1" as="geometry">
                        <mxPoint x="-100" y="870" as="sourcePoint"/>
                    </mxGeometry>
                </mxCell>
                <mxCell id="44" value="LOG-SYSTEM&lt;br&gt;10.0.2.0/24" style="swimlane;whiteSpace=wrap;html=1;startSize=40;fillColor=#1ba1e2;fontColor=#ffffff;strokeColor=#006EAF;" parent="1" vertex="1">
                    <mxGeometry x="-300" y="400" width="200" height="520" as="geometry"/>
                </mxCell>
                <mxCell id="46" value="ELASTICSEARCH&lt;br&gt;10.0.2.1" style="rounded=1;whiteSpace=wrap;html=1;fillColor=#1ba1e2;fontColor=#ffffff;strokeColor=#006EAF;" parent="44" vertex="1">
                    <mxGeometry x="40" y="250" width="120" height="60" as="geometry"/>
                </mxCell>
                <mxCell id="70" style="edgeStyle=none;html=1;entryX=0.5;entryY=0;entryDx=0;entryDy=0;fillColor=#1ba1e2;strokeColor=#006EAF;" parent="44" source="48" target="46" edge="1">
                    <mxGeometry relative="1" as="geometry"/>
                </mxCell>
                <mxCell id="48" value="LOGSTASH&lt;br&gt;10.0.2.2" style="rounded=1;whiteSpace=wrap;html=1;fillColor=#1ba1e2;fontColor=#ffffff;strokeColor=#006EAF;" parent="44" vertex="1">
                    <mxGeometry x="40" y="80" width="120" height="60" as="geometry"/>
                </mxCell>
                <mxCell id="67" style="edgeStyle=none;html=1;exitX=0.5;exitY=0;exitDx=0;exitDy=0;entryX=0.5;entryY=1;entryDx=0;entryDy=0;fillColor=#1ba1e2;strokeColor=#006EAF;" parent="44" source="50" target="46" edge="1">
                    <mxGeometry relative="1" as="geometry"/>
                </mxCell>
                <mxCell id="50" value="KIBANA&lt;br&gt;10.0.2.3" style="rounded=1;whiteSpace=wrap;html=1;fillColor=#1ba1e2;fontColor=#ffffff;strokeColor=#006EAF;" parent="44" vertex="1">
                    <mxGeometry x="40" y="420" width="120" height="60" as="geometry"/>
                </mxCell>
                <mxCell id="71" value="9200/tcp" style="text;html=1;align=left;verticalAlign=middle;resizable=0;points=[];autosize=1;strokeColor=none;fillColor=none;" parent="44" vertex="1">
                    <mxGeometry x="110" y="180" width="70" height="30" as="geometry"/>
                </mxCell>
                <mxCell id="72" value="&lt;span style=&quot;&quot;&gt;9200/tcp&lt;/span&gt;" style="text;html=1;align=left;verticalAlign=middle;resizable=0;points=[];autosize=1;strokeColor=none;fillColor=none;" parent="44" vertex="1">
                    <mxGeometry x="110" y="360" width="70" height="30" as="geometry"/>
                </mxCell>
                <mxCell id="57" value="0.0.0.0/0 =&amp;gt; 10.0.2.1 = 9200/tcp&lt;br&gt;0.0.0.0/0 =&amp;gt; 10.0.2.3 = 5601/tcp" style="text;html=1;align=left;verticalAlign=middle;resizable=0;points=[];autosize=1;strokeColor=none;fillColor=none;" parent="1" vertex="1">
                    <mxGeometry x="-190" y="160" width="190" height="40" as="geometry"/>
                </mxCell>
                <mxCell id="59" value="0.0.0.0/0 =&amp;gt; 10.0.4.1 = 80/tcp, 443/tcp" style="text;html=1;align=left;verticalAlign=middle;resizable=0;points=[];autosize=1;strokeColor=none;fillColor=none;" parent="1" vertex="1">
                    <mxGeometry x="430" y="20" width="230" height="30" as="geometry"/>
                </mxCell>
                <mxCell id="84" style="edgeStyle=none;html=1;entryX=0.5;entryY=1;entryDx=0;entryDy=0;fillColor=#1ba1e2;strokeColor=#006EAF;exitX=0.14;exitY=0;exitDx=0;exitDy=0;exitPerimeter=0;" parent="1" source="77" target="44" edge="1">
                    <mxGeometry relative="1" as="geometry">
                        <mxPoint x="-140" y="1040" as="sourcePoint"/>
                    </mxGeometry>
                </mxCell>
                <mxCell id="77" value="DOCKER ENGINE" style="swimlane;whiteSpace=wrap;html=1;startSize=40;fillColor=#6a00ff;strokeColor=#3700CC;fontColor=#ffffff;" parent="1" vertex="1">
                    <mxGeometry x="-440" y="1040" width="1720" height="40" as="geometry"/>
                </mxCell>
                <mxCell id="85" value="10.0.0.0/24 =&amp;gt; 10.0.2.2 = 5000/udp&lt;br&gt;10.0.1.0/24 =&amp;gt; 10.0.2.2 = 5000/udp&lt;br&gt;10.0.4.0/24 =&amp;gt; 10.0.2.2 = 5000/udp" style="text;html=1;align=left;verticalAlign=middle;resizable=0;points=[];autosize=1;strokeColor=none;fillColor=none;" parent="1" vertex="1">
                    <mxGeometry x="-190" y="950" width="210" height="60" as="geometry"/>
                </mxCell>
                <mxCell id="90" value="0.0.0.0/0 =&amp;gt; 10.0.3.1 = 9090/tcp&lt;br&gt;0.0.0.0/0 =&amp;gt; 10.0.3.2 = 3000/tcp" style="text;html=1;align=left;verticalAlign=middle;resizable=0;points=[];autosize=1;strokeColor=none;fillColor=none;" parent="1" vertex="1">
                    <mxGeometry x="1050" y="160" width="190" height="40" as="geometry"/>
                </mxCell>
                <mxCell id="110" style="edgeStyle=none;html=1;exitX=0.25;exitY=0;exitDx=0;exitDy=0;entryX=1;entryY=0.5;entryDx=0;entryDy=0;fillColor=#1ba1e2;strokeColor=#006EAF;" parent="1" source="102" target="33" edge="1">
                    <mxGeometry relative="1" as="geometry">
                        <Array as="points">
                            <mxPoint x="840" y="180"/>
                        </Array>
                    </mxGeometry>
                </mxCell>
                <mxCell id="102" value="MONITOR-SYSTEM&lt;br&gt;10.0.3.0/24" style="swimlane;whiteSpace=wrap;html=1;startSize=40;fillColor=#1ba1e2;fontColor=#ffffff;strokeColor=#006EAF;" parent="1" vertex="1">
                    <mxGeometry x="840" y="400" width="400" height="360" as="geometry"/>
                </mxCell>
                <mxCell id="104" value="POSTGRES-EXPORTER&lt;br style=&quot;border-color: var(--border-color);&quot;&gt;10.0.3.4" style="rounded=1;whiteSpace=wrap;html=1;fillColor=#1ba1e2;fontColor=#ffffff;strokeColor=#006EAF;" parent="102" vertex="1">
                    <mxGeometry x="40" y="80" width="120" height="60" as="geometry"/>
                </mxCell>
                <mxCell id="105" value="NGINX-EXPORTER&lt;br&gt;10.0.3.3" style="rounded=1;whiteSpace=wrap;html=1;fillColor=#1ba1e2;fontColor=#ffffff;strokeColor=#006EAF;" parent="102" vertex="1">
                    <mxGeometry x="50" y="250" width="120" height="60" as="geometry"/>
                </mxCell>
                <mxCell id="52" value="GRAFANA&lt;br style=&quot;border-color: var(--border-color);&quot;&gt;10.0.3.2" style="rounded=1;whiteSpace=wrap;html=1;fillColor=#1ba1e2;fontColor=#ffffff;strokeColor=#006EAF;" parent="102" vertex="1">
                    <mxGeometry x="240" y="80" width="120" height="60" as="geometry"/>
                </mxCell>
                <mxCell id="124" style="edgeStyle=none;html=1;entryX=1;entryY=0.5;entryDx=0;entryDy=0;fillColor=#1ba1e2;strokeColor=#006EAF;exitX=0;exitY=0.5;exitDx=0;exitDy=0;" parent="102" source="53" target="105" edge="1">
                    <mxGeometry relative="1" as="geometry">
                        <Array as="points"/>
                        <mxPoint x="230" y="280" as="sourcePoint"/>
                    </mxGeometry>
                </mxCell>
                <mxCell id="125" style="edgeStyle=none;html=1;entryX=0.5;entryY=1;entryDx=0;entryDy=0;fillColor=#1ba1e2;strokeColor=#006EAF;exitX=0;exitY=0;exitDx=0;exitDy=0;" parent="102" source="53" target="104" edge="1">
                    <mxGeometry relative="1" as="geometry">
                        <Array as="points">
                            <mxPoint x="100" y="200"/>
                        </Array>
                        <mxPoint x="250" y="230" as="sourcePoint"/>
                    </mxGeometry>
                </mxCell>
                <mxCell id="53" value="PROMETHEUS&lt;br style=&quot;border-color: var(--border-color);&quot;&gt;10.0.3.1" style="rounded=1;whiteSpace=wrap;html=1;fillColor=#1ba1e2;fontColor=#ffffff;strokeColor=#006EAF;" parent="102" vertex="1">
                    <mxGeometry x="240" y="250" width="120" height="60" as="geometry"/>
                </mxCell>
                <mxCell id="54" value="" style="edgeStyle=none;html=1;fillColor=#1ba1e2;strokeColor=#006EAF;" parent="102" source="52" target="53" edge="1">
                    <mxGeometry relative="1" as="geometry"/>
                </mxCell>
                <mxCell id="126" value="9113/tcp" style="text;html=1;align=left;verticalAlign=middle;resizable=0;points=[];autosize=1;strokeColor=none;fillColor=none;" parent="102" vertex="1">
                    <mxGeometry x="180" y="250" width="70" height="30" as="geometry"/>
                </mxCell>
                <mxCell id="129" value="9187/tcp" style="text;html=1;align=left;verticalAlign=middle;resizable=0;points=[];autosize=1;strokeColor=none;fillColor=none;" parent="102" vertex="1">
                    <mxGeometry x="110" y="160" width="70" height="30" as="geometry"/>
                </mxCell>
                <mxCell id="132" value="9090/tcp" style="text;html=1;align=left;verticalAlign=middle;resizable=0;points=[];autosize=1;strokeColor=none;fillColor=none;" parent="102" vertex="1">
                    <mxGeometry x="310" y="175" width="70" height="30" as="geometry"/>
                </mxCell>
                <mxCell id="127" value="10.0.3.4 =&amp;gt; 10.0.1.2 = 5432/tcp&lt;br&gt;10.0.3.1 =&amp;gt; 10.0.1.1 = 8000/tcp" style="text;html=1;align=left;verticalAlign=middle;resizable=0;points=[];autosize=1;strokeColor=none;fillColor=none;" parent="1" vertex="1">
                    <mxGeometry x="650" y="460" width="190" height="40" as="geometry"/>
                </mxCell>
                <mxCell id="128" value="10.0.3.3 =&amp;gt; 10.0.4.1 = 8080/tcp, 8443/tcp" style="text;html=1;align=left;verticalAlign=middle;resizable=0;points=[];autosize=1;strokeColor=none;fillColor=none;" parent="1" vertex="1">
                    <mxGeometry x="570" y="150" width="240" height="30" as="geometry"/>
                </mxCell>
                <mxCell id="134" value="0.0.0.0/0 =&amp;gt; 10.0.0.1 = 8200/tcp" style="text;html=1;align=left;verticalAlign=middle;resizable=0;points=[];autosize=1;strokeColor=none;fillColor=none;" parent="1" vertex="1">
                    <mxGeometry x="50" y="165" width="190" height="30" as="geometry"/>
                </mxCell>
                <mxCell id="136" value="10.0.1.1 =&amp;gt; 10.0.0.1 = 8200/tcp&lt;br&gt;10.0.1.2 =&amp;gt; 10.0.0.1 = 8200/tcp" style="text;html=1;align=left;verticalAlign=middle;resizable=0;points=[];autosize=1;strokeColor=none;fillColor=none;" parent="1" vertex="1">
                    <mxGeometry x="430" y="640" width="190" height="40" as="geometry"/>
                </mxCell>
                <mxCell id="138" value="10.0.2.1 =&amp;gt; 10.0.0.1 = 8200/tcp&lt;br&gt;10.0.2.2 =&amp;gt; 10.0.0.1 = 8200/tcp&lt;br&gt;10.0.2.3 =&amp;gt; 10.0.0.1 = 8200/tcp" style="text;html=1;align=left;verticalAlign=middle;resizable=0;points=[];autosize=1;strokeColor=none;fillColor=none;" parent="1" vertex="1">
                    <mxGeometry x="-90" y="810" width="190" height="60" as="geometry"/>
                </mxCell>
                <mxCell id="139" value="10.0.3.1 =&amp;gt; 10.0.0.1 = 8200/tcp&lt;br&gt;10.0.3.2 =&amp;gt; 10.0.0.1 = 8200/tcp" style="text;html=1;align=left;verticalAlign=middle;resizable=0;points=[];autosize=1;strokeColor=none;fillColor=none;" parent="1" vertex="1">
                    <mxGeometry x="595" y="780" width="190" height="40" as="geometry"/>
                </mxCell>
            </root>
        </mxGraphModel>
    </diagram>
</mxfile>
